<?xml version="1.0" encoding="UTF-8"?>
<svg id="Capa_2" data-name="Capa 2" xmlns="http://www.w3.org/2000/svg" viewBox="0 0 34.14 20.72">
  <defs>
    <style>
      .cls-1 {
        fill: #0070f0;
      }
    </style>
  </defs>
  <g id="Capa_1-2" data-name="Capa 1">
    <path class="cls-1" d="M7.17,3.46c.77-1.08,1.77-1.96,2.93-2.59C11.25,.3,12.51,.02,13.79,.03c1.25-.03,2.49,.27,3.59,.87,1.03,.6,1.86,1.49,2.39,2.56,.85-1.1,1.92-1.99,3.15-2.62C24.12,.26,25.44-.02,26.78,0,29.11,0,30.92,.6,32.21,1.81s1.93,2.89,1.93,5.06v9.84c.06,1.08-.32,2.13-1.06,2.92-.74,.74-1.76,1.13-2.81,1.09-1.06,.05-2.09-.35-2.83-1.1-.73-.82-1.1-1.9-1.04-3v-6.85c.08-.95-.15-1.9-.66-2.72-.53-.59-1.3-.9-2.09-.82-.79-.06-1.56,.27-2.05,.89-.5,.82-.73,1.77-.66,2.72v6.87c.07,1.08-.3,2.14-1.03,2.95-.76,.73-1.79,1.12-2.85,1.06-1.05,.05-2.08-.35-2.81-1.1-.72-.83-1.09-1.9-1.03-3v-6.56c.08-1.02-.15-2.04-.66-2.93-.52-.63-1.31-.96-2.13-.89-.76-.04-1.5,.29-1.97,.89-.51,.77-.76,1.7-.69,2.62v6.95c.05,1.07-.34,2.12-1.08,2.9-.75,.75-1.78,1.15-2.85,1.11-1.05,.05-2.08-.36-2.81-1.12C.32,18.77-.05,17.7,.01,16.6V3.99C-.07,2.96,.26,1.94,.92,1.15,1.63,.47,2.6,.12,3.58,.19c.93-.05,1.85,.25,2.56,.85,.65,.64,1.02,1.51,1.03,2.43Z"/>
  </g>
</svg>