<?xml version="1.0" encoding="UTF-8"?>
<svg id="Capa_2" data-name="Capa 2" xmlns="http://www.w3.org/2000/svg" viewBox="0 0 239.01 35.26">
  <defs>
    <style>
      .cls-1 {
        fill: #fff;
      }

      .cls-2 {
        fill: #0070f0;
      }
    </style>
  </defs>
  <g id="Capa_1-2" data-name="Capa 1">
    <g id="Capa_2-2" data-name="Capa 2">
      <g id="elementos_animados" data-name="elementos animados">
        <path class="cls-2" d="M7.17,10.3c.77-1.08,1.77-1.96,2.93-2.59,1.14-.57,2.4-.86,3.68-.84,1.25-.03,2.49,.27,3.59,.87,1.03,.6,1.86,1.49,2.39,2.56,.85-1.1,1.92-1.99,3.15-2.62,1.21-.58,2.53-.86,3.86-.84,2.33,0,4.14,.6,5.43,1.8s1.93,2.89,1.93,5.06v9.84c.06,1.08-.32,2.13-1.06,2.92-.74,.74-1.76,1.13-2.81,1.09-1.06,.05-2.09-.35-2.83-1.1-.73-.82-1.1-1.9-1.04-3v-6.85c.08-.95-.15-1.9-.66-2.72-.53-.59-1.3-.9-2.09-.82-.79-.06-1.56,.27-2.05,.89-.5,.82-.73,1.77-.66,2.72v6.87c.07,1.08-.3,2.14-1.03,2.95-.76,.73-1.79,1.12-2.85,1.06-1.05,.05-2.08-.35-2.81-1.1-.72-.83-1.09-1.9-1.03-3v-6.56c.08-1.02-.15-2.04-.66-2.93-.52-.63-1.31-.96-2.13-.89-.76-.04-1.5,.29-1.97,.89-.51,.77-.76,1.7-.69,2.62v6.95c.05,1.07-.34,2.12-1.08,2.9-.75,.75-1.78,1.15-2.85,1.11-1.05,.05-2.08-.36-2.81-1.12C.32,25.61-.05,24.54,.01,23.44V10.83c-.08-1.03,.25-2.05,.91-2.84,.71-.68,1.67-1.03,2.66-.96,.93-.05,1.85,.25,2.56,.85,.65,.64,1.02,1.51,1.03,2.43Z"/>
        <path class="cls-1" d="M46.63,27.92c-2.99,0-5.38-.44-7.17-1.31-1.8-.87-2.72-2.01-2.72-3.42-.02-.7,.25-1.38,.75-1.88,.51-.5,1.21-.77,1.92-.75,1.09,.09,2.12,.56,2.92,1.31l.18,.14c.61,.51,1.29,.93,2.03,1.24,.6,.22,1.24,.33,1.89,.33,.74,.04,1.48-.12,2.14-.47,.49-.25,.79-.76,.77-1.31,0-.87-.96-1.53-2.88-1.97-.18-.03-.32-.07-.41-.09-3.54-.74-5.9-1.57-7.08-2.49-1.19-.93-1.85-2.39-1.76-3.9-.07-1.97,.91-3.84,2.56-4.91,1.71-1.18,4.1-1.76,7.18-1.76,2.88,0,5.16,.39,6.84,1.18,1.65,.78,2.49,1.83,2.49,3.15,.02,.59-.22,1.16-.66,1.55-.52,.41-1.17,.6-1.83,.54-.99-.07-1.95-.4-2.79-.94-.26-.15-.45-.26-.58-.33-1.01-.6-2.17-.91-3.35-.9-.58-.04-1.16,.09-1.67,.37-.38,.25-.59,.69-.54,1.15,0,.72,.93,1.29,2.79,1.71l1.04,.24c3.47,.8,5.76,1.67,6.85,2.62,1.14,1.04,1.74,2.55,1.64,4.09,.03,2.05-1.05,3.96-2.82,4.99-1.88,1.21-4.46,1.81-7.73,1.8Z"/>
        <path class="cls-1" d="M67.11,19.03c-.04,1.09,.34,2.16,1.06,2.98,.82,.71,1.89,1.06,2.96,.98,.49,0,.97-.06,1.44-.19,.52-.17,1.02-.39,1.5-.66,.17-.1,.41-.25,.73-.45,.77-.57,1.67-.92,2.62-1,.66-.02,1.3,.22,1.79,.66,.48,.4,.74,1,.72,1.63,0,1.43-.89,2.61-2.68,3.55-2.17,1.02-4.55,1.5-6.94,1.41-3.4,0-6.1-.94-8.09-2.83s-3-4.43-3-7.63,1.02-5.96,3.06-7.87c2.04-1.92,4.81-2.88,8.33-2.89,1.45-.01,2.88,.25,4.22,.79,1.32,.53,2.51,1.33,3.5,2.35,.84,.86,1.5,1.87,1.97,2.97,.47,1.06,.72,2.21,.72,3.37,.08,.82-.22,1.62-.82,2.18-.78,.51-1.7,.74-2.62,.66h-10.48Zm0-3.97h7.02c0-1.01-.37-1.99-1.03-2.75-.69-.65-1.61-.99-2.56-.93-.92-.05-1.82,.31-2.45,.98-.65,.76-1,1.74-.98,2.74v-.03Z"/>
        <path class="cls-1" d="M91.22,10.3c.49-1.12,1.3-2.08,2.32-2.75,1.09-.61,2.33-.9,3.58-.85,2.48-.1,4.87,.94,6.47,2.84,1.61,1.9,2.41,4.44,2.41,7.63,0,3.29-.78,5.92-2.34,7.87-1.51,1.91-3.84,2.99-6.28,2.91-1.07,.02-2.14-.21-3.12-.66-.99-.49-1.86-1.18-2.55-2.04v6.05c.05,1.06-.32,2.11-1.04,2.89-.75,.73-1.76,1.11-2.81,1.06-1.06,.04-2.08-.37-2.81-1.14-.72-.81-1.1-1.88-1.04-2.96V11.05c-.08-1.08,.24-2.14,.9-3,.68-.72,1.64-1.09,2.62-1.03,.93-.05,1.84,.26,2.54,.85,.66,.65,1.06,1.51,1.13,2.43Zm3.74,11.71c.94,.06,1.85-.35,2.41-1.11,.6-1.04,.88-2.24,.79-3.44,.07-1.18-.23-2.34-.85-3.35-.53-.78-1.42-1.23-2.35-1.19-.95-.04-1.85,.41-2.39,1.19-.63,1-.93,2.17-.86,3.35-.09,1.2,.18,2.4,.79,3.44,.58,.77,1.5,1.18,2.46,1.11Z"/>
        <path class="cls-1" d="M122.6,11.01c-.05-1.07,.34-2.12,1.08-2.9,.77-.74,1.81-1.14,2.87-1.09,1.07-.06,2.11,.34,2.87,1.1,.73,.82,1.11,1.9,1.05,3v12.63c.07,1.02-.26,2.04-.92,2.82-1.54,1.28-3.77,1.3-5.33,.05-.65-.74-.99-1.7-.94-2.68-.71,1.18-1.72,2.16-2.92,2.84-1.25,.65-2.65,.97-4.06,.93-1.34,.03-2.67-.28-3.86-.91-1.07-.6-1.93-1.51-2.45-2.62-.34-.76-.56-1.56-.66-2.39-.16-1.37-.23-2.76-.2-4.14v-6.23c-.08-1.18,.27-2.34,.98-3.28,.76-.78,1.82-1.19,2.9-1.11,1.1-.07,2.18,.34,2.96,1.13,.75,.92,1.11,2.1,1.03,3.28v6.2c0,1.5,.2,2.54,.6,3.12,.49,.62,1.26,.96,2.05,.9,.86,.06,1.69-.32,2.21-1,.56-.91,.82-1.96,.74-3.02v-6.61Z"/>
        <path class="cls-1" d="M134.91,4.1c-.05-1.1,.33-2.17,1.08-2.98,.77-.77,1.83-1.17,2.91-1.12,1.07-.05,2.12,.34,2.89,1.08,.74,.78,1.12,1.84,1.06,2.91V23.55c.05,1.07-.33,2.13-1.08,2.91-.76,.75-1.81,1.15-2.88,1.1-1.08,.05-2.14-.34-2.93-1.1-.74-.82-1.12-1.9-1.06-3V4.1Z"/>
        <path class="cls-1" d="M146.32,12.14c-.1-.27-.17-.55-.22-.84-.05-.29-.08-.59-.07-.89-.03-.94,.37-1.85,1.08-2.47,.78-.66,1.78-1,2.79-.96,.78-.03,1.54,.23,2.13,.74,.64,.65,1.1,1.46,1.31,2.35l2.7,9.22,2.53-9.18c.22-.9,.67-1.74,1.31-2.41,.56-.53,1.31-.82,2.08-.8,.98-.02,1.94,.32,2.68,.96,.7,.62,1.1,1.52,1.07,2.46,0,.28-.03,.56-.09,.83-.06,.32-.14,.63-.24,.94l-4.3,13.01c-.21,.74-.66,1.39-1.27,1.84-.68,.42-1.47,.62-2.26,.58h-3.06c-.8,.04-1.59-.16-2.28-.58-.63-.46-1.09-1.11-1.31-1.85l-4.58-12.97Z"/>
        <path class="cls-1" d="M175.64,19.03c-.04,1.09,.33,2.16,1.06,2.98,.82,.71,1.89,1.06,2.97,.98,.48,0,.96-.06,1.43-.19,.52-.17,1.03-.39,1.5-.66,.17-.1,.41-.25,.73-.45,.77-.57,1.67-.91,2.62-1,.66-.02,1.3,.22,1.8,.66,.48,.4,.74,1,.72,1.63,0,1.43-.9,2.61-2.69,3.55-2.16,1.02-4.54,1.5-6.93,1.41-3.4,0-6.1-.94-8.1-2.83s-3-4.43-3-7.63,1.02-5.96,3.06-7.87c2.04-1.92,4.82-2.88,8.32-2.89,1.45-.01,2.88,.25,4.23,.79,1.31,.53,2.5,1.33,3.5,2.35,.83,.86,1.5,1.87,1.97,2.97,.48,1.07,.73,2.22,.74,3.39,.07,.81-.24,1.61-.84,2.16-.78,.51-1.7,.74-2.62,.66h-10.47Zm0-3.97h7.02c0-1.01-.37-1.99-1.03-2.75-.69-.64-1.61-.97-2.55-.91-.92-.04-1.81,.31-2.45,.98-.65,.76-1,1.72-.99,2.72v-.03Z"/>
        <path class="cls-1" d="M213.53,4.1V23.89c.07,1.08-.24,2.14-.89,3-.67,.72-1.64,1.1-2.62,1.04-.88,.04-1.74-.25-2.41-.82-.65-.64-1.05-1.48-1.12-2.39-.58,1.01-1.41,1.84-2.42,2.41-1.05,.55-2.22,.82-3.41,.79-2.87,0-5.11-.93-6.72-2.79s-2.41-4.44-2.38-7.76c0-3.21,.78-5.77,2.35-7.68,1.53-1.89,3.85-2.95,6.28-2.87,1.06,0,2.1,.22,3.06,.66,1,.47,1.89,1.14,2.62,1.97V3.99c-.05-1.07,.32-2.11,1.04-2.91,.73-.74,1.74-1.13,2.78-1.08,1.05-.05,2.07,.36,2.79,1.12,.73,.82,1.11,1.89,1.05,2.98Zm-10.84,8.82c-.95-.08-1.87,.34-2.43,1.11-.6,1.06-.86,2.27-.77,3.48-.07,1.18,.22,2.36,.84,3.37,.53,.78,1.42,1.24,2.37,1.2,.95,.03,1.85-.43,2.38-1.21,.63-1,.93-2.18,.87-3.36,.09-1.21-.19-2.42-.81-3.46-.57-.77-1.49-1.2-2.44-1.13Z"/>
        <path class="cls-1" d="M238.93,22.91c0,.21,0,.54,.03,1s.04,.81,.04,1.06c.05,.76-.27,1.49-.86,1.97-.74,.49-1.62,.72-2.5,.66-.94,.05-1.87-.22-2.62-.77-.68-.62-1.11-1.48-1.19-2.39-.82,1.13-1.91,2.04-3.18,2.62-1.4,.61-2.91,.91-4.43,.87-2.23,0-3.96-.55-5.18-1.65-1.27-1.21-1.94-2.91-1.84-4.66,0-1.97,.61-3.43,1.84-4.39s3.37-1.62,6.43-1.97c.37-.05,.89-.1,1.53-.16,2.84-.29,4.26-.96,4.26-2.01,.02-.5-.23-.98-.66-1.25-.59-.32-1.26-.47-1.93-.43-.61,0-1.21,.05-1.8,.18-.49,.11-.96,.3-1.38,.56-.27,.18-.54,.38-.79,.58-.99,.87-2.25,1.38-3.57,1.46-.6,0-1.17-.27-1.57-.72-.43-.46-.67-1.07-.66-1.71,0-1.47,.91-2.68,2.74-3.65,2.21-1.05,4.64-1.54,7.08-1.44,1.52-.02,3.05,.13,4.54,.43,1.13,.21,2.21,.63,3.19,1.24,.84,.52,1.52,1.26,1.97,2.14,.43,1.08,.63,2.25,.57,3.42l-.07,9Zm-7.77-4.54c-.46,.22-.94,.39-1.43,.52-.52,.14-1.17,.28-1.97,.41-.75,.07-1.47,.31-2.12,.7-.39,.32-.6,.81-.57,1.31-.04,.53,.17,1.04,.57,1.38,.5,.35,1.1,.52,1.71,.49,1.36,0,2.34-.3,2.95-.91s.91-1.58,.91-2.94v-.6c0-.14-.03-.26-.05-.37Z"/>
      </g>
    </g>
  </g>
</svg>