<?xml version="1.0" encoding="UTF-8"?>
<svg id="Capa_2" data-name="Capa 2" xmlns="http://www.w3.org/2000/svg" viewBox="0 0 59.47 59.48">
  <defs>
    <style>
      .cls-1 {
        fill: #44a8b3;
      }
    </style>
  </defs>
  <g id="Capa_1-2" data-name="Capa 1">
    <g>
      <path class="cls-1" d="M20.41,21.67c.95,3.56,2.12,7.05,3.15,10.59h-6.3c1.08-3.46,2.08-6.89,3.15-10.59Z"/>
      <path class="cls-1" d="M58,7.35c-1.29-2.53-3.34-4.59-5.88-5.88-2.87-1.47-6.64-1.47-14.17-1.47H21.52C13.99,0,10.22,0,7.34,1.47,4.81,2.76,2.75,4.82,1.46,7.35c-1.46,2.88-1.46,6.64-1.46,14.18v16.42c0,7.54,0,11.31,1.46,14.18,1.29,2.53,3.35,4.59,5.88,5.88,2.88,1.47,6.65,1.47,14.18,1.47h16.43c7.53,0,11.3,0,14.17-1.47,2.54-1.29,4.59-3.35,5.88-5.88,1.47-2.87,1.47-6.64,1.47-14.18V21.53c0-7.54,0-11.3-1.47-14.18Zm-25.34,36.31h-5.19c-.18,.03-.35-.1-.4-.28l-2.03-6.07H15.82l-1.87,5.99c-.06,.22-.26,.38-.48,.36h-4.67c-.27,0-.36-.15-.28-.45l7.98-23.47c.08-.24,.16-.48,.24-.8,.1-.54,.16-1.1,.16-1.65-.02-.17,.12-.31,.28-.29h6.34c.19,0,.29,.07,.32,.2l9.06,26.06c.08,.27,0,.4-.24,.4Zm19.26-9.05c-.02,.19-.18,.33-.36,.33-3.96,0-7.95,.06-11.93,.06,.37,3.04,2.92,4.49,5.75,4.43,1.59-.04,3.29-.28,4.78-.89,.14-.1,.2-.04,.2,.21v3.89c.02,.2-.07,.38-.24,.49-1.85,.84-3.97,1.09-5.98,1.06-5.98,0-10.09-4.22-10.09-10.35-.02-5.82,3.75-10.72,9.61-10.72,4.97-.13,8.41,3.84,8.42,8.79,0,.91-.05,1.81-.16,2.7Zm-8.46-7.07c-2.17-.14-3.56,1.69-3.83,3.73,2.21,0,4.44,.08,6.65-.02,.33-.03,.57-.1,.57-.44-.04-1.84-1.59-3.34-3.39-3.27Z"/>
    </g>
  </g>
</svg>