<?xml version="1.0" encoding="UTF-8"?>
<svg id="Capa_2" data-name="Capa 2" xmlns="http://www.w3.org/2000/svg" viewBox="0 0 57.69 57.69">
  <defs>
    <style>
      .cls-1 {
        fill: #44a8b3;
      }
    </style>
  </defs>
  <g id="Capa_1-2" data-name="Capa 1">
    <g>
      <path class="cls-1" d="M31.71,25.51h-7.78v-8.17h7.19c.69,0,1.35,.06,1.98,.18,.64,.11,1.2,.31,1.69,.61,.49,.29,.88,.7,1.18,1.22,.29,.52,.43,1.19,.43,2.01,0,1.46-.43,2.52-1.32,3.18-.88,.65-2.01,.97-3.37,.97Z"/>
      <path class="cls-1" d="M36.3,31.9c1.02,.76,1.52,2.04,1.52,3.84,0,.91-.16,1.66-.47,2.25-.31,.58-.73,1.05-1.25,1.4-.52,.34-1.12,.58-1.81,.73-.69,.14-1.41,.21-2.16,.21h-8.21v-9.58h8.36c1.66,0,3,.38,4.01,1.15Z"/>
      <path class="cls-1" d="M50.26,0H7.44C3.34,0,0,3.33,0,7.43V50.25c0,4.11,3.34,7.44,7.44,7.44H50.26c4.11,0,7.43-3.33,7.43-7.44V7.43c0-4.11-3.33-7.43-7.43-7.43Zm-5.79,40.75c-.68,1.29-1.6,2.35-2.76,3.16-1.16,.81-2.48,1.42-3.96,1.81-1.48,.39-3.01,.58-4.58,.58H16.25V11.38h16.43c1.66,0,3.19,.14,4.55,.44,1.37,.29,2.55,.77,3.52,1.44,.98,.66,1.74,1.56,2.27,2.66,.54,1.11,.81,2.48,.81,4.11,0,1.76-.41,3.23-1.2,4.41-.8,1.17-1.98,2.13-3.55,2.89,2.16,.62,3.76,1.71,4.82,3.26s1.59,3.42,1.59,5.6c0,1.76-.35,3.28-1.04,4.57Z"/>
    </g>
  </g>
</svg>