<?xml version="1.0" encoding="UTF-8"?>
<svg id="Capa_2" data-name="Capa 2" xmlns="http://www.w3.org/2000/svg" viewBox="0 0 39.07 58.6">
  <defs>
    <style>
      .cls-1 {
        fill: #2e8a8e;
      }

      .cls-1, .cls-2 {
        fill-rule: evenodd;
      }

      .cls-2 {
        fill: #44a8b3;
      }
    </style>
  </defs>
  <g id="Capa_1-2" data-name="Capa 1">
    <g>
      <path class="cls-2" d="M19.53,29.3c0-5.39,4.37-9.77,9.77-9.77s9.77,4.37,9.77,9.77-4.37,9.77-9.77,9.77-9.77-4.37-9.77-9.77Z"/>
      <path class="cls-2" d="M0,48.84c0-5.39,4.37-9.77,9.77-9.77h9.77v9.77c0,5.39-4.37,9.77-9.77,9.77S0,54.23,0,48.84Z"/>
      <path class="cls-1" d="M19.53,0V19.53h9.77c5.39,0,9.77-4.37,9.77-9.77S34.7,0,29.3,0h-9.77Z"/>
      <path class="cls-2" d="M0,9.77c0,5.39,4.37,9.77,9.77,9.77h9.77V0H9.77C4.37,0,0,4.37,0,9.77Z"/>
      <path class="cls-1" d="M0,29.3c0,5.39,4.37,9.77,9.77,9.77h9.77V19.53H9.77C4.37,19.53,0,23.91,0,29.3Z"/>
    </g>
  </g>
</svg>