<?xml version="1.0" encoding="UTF-8"?>
<svg id="Capa_2" data-name="Capa 2" xmlns="http://www.w3.org/2000/svg" viewBox="0 0 46.97 62.52">
  <defs>
    <style>
      .cls-1 {
        fill: #44a8b3;
      }
    </style>
  </defs>
  <g id="Capa_1-2" data-name="Capa 1">
    <g>
      <path class="cls-1" d="M2.03,22.53c1.06,.93,2.41,1.52,3.94,1.52h.59c3.26,0,5.89-2.67,5.89-5.89V5.93h0C12.45,2.71,9.78,.04,6.57,.04h-.59C4.24,.04,2.63,.8,1.57,2.03c-.97,1.02-1.57,2.41-1.57,3.9v12.24c0,1.74,.76,3.3,2.03,4.36Z"/>
      <path class="cls-1" d="M6.27,56.54c-.68,0-1.23,.55-1.23,1.23s.55,1.23,1.23,1.23,1.23-.55,1.23-1.23-.55-1.23-1.23-1.23Z"/>
      <path class="cls-1" d="M11.22,60.06c-.68,0-1.23,.55-1.23,1.23s.55,1.23,1.23,1.23h0c.68,0,1.23-.55,1.23-1.23s-.55-1.23-1.23-1.23Z"/>
      <path class="cls-1" d="M41.13,0h-.59c-3.26,0-5.89,2.67-5.89,5.89h0V15.93c0,4.62-3.85,8.22-8.43,8.22h-6.01C9.11,24.14,.13,32.7,.13,43.88v12.45c0,.72,.55,1.23,1.23,1.23s1.23-.55,1.23-1.23v-5.89c0-.72,.55-1.23,1.23-1.23s1.23,.55,1.23,1.23v3.3c0,.72,.55,1.23,1.23,1.23s1.23-.55,1.23-1.23v-5.55c0-.72,.55-1.23,1.23-1.23s1.23,.55,1.23,1.23v9.02c0,.72,.55,1.23,1.23,1.23s1.23-.55,1.23-1.23v-13.34c0-4.62,3.73-7.84,8.34-7.84h6.1c2.75,0,5.29-.51,7.75-1.57v19.65c0,3.26,2.67,5.89,5.89,5.89h.59c3.26,0,5.89-2.67,5.89-5.89V5.97h0v-.04C46.97,2.67,44.3,.04,41.08,.04l.04-.04Z"/>
    </g>
  </g>
</svg>