<?xml version="1.0" encoding="UTF-8"?>
<svg id="Capa_2" data-name="Capa 2" xmlns="http://www.w3.org/2000/svg" viewBox="0 0 50.8 57.6">
  <defs>
    <style>
      .cls-1 {
        fill: #44a8b3;
      }
    </style>
  </defs>
  <g id="Capa_1-2" data-name="Capa 1">
    <g>
      <path class="cls-1" d="M25.38,39.98h0s.02,0,.02,0h-.02Z"/>
      <path class="cls-1" d="M0,0L4.63,51.84l20.74,5.76,20.8-5.77L50.8,0H0ZM41.15,12.3l-.28,3.22-.13,1.43H16.41l.58,6.51h23.18l-.16,1.71-1.5,16.73-.09,1.08-13.02,3.6h-.02s0,0,0,0l-13.03-3.61-.89-9.99h6.38l.46,5.07,7.08,1.92h0s.02,0,.02,0h0s7.07-1.91,7.07-1.91l.73-8.25H11.17l-1.57-17.52-.15-1.71h31.85l-.15,1.71Z"/>
      <path class="cls-1" d="M25.38,39.98h0s.02,0,.02,0h-.02Z"/>
    </g>
  </g>
</svg>