<?xml version="1.0" encoding="UTF-8"?>
<svg id="Capa_2" data-name="Capa 2" xmlns="http://www.w3.org/2000/svg" viewBox="0 0 60.22 60.22">
  <defs>
    <style>
      .cls-1 {
        fill: #44a8b3;
      }
    </style>
  </defs>
  <g id="Capa_1-2" data-name="Capa 1">
    <g>
      <path class="cls-1" d="M24.49,21.89c.96,3.62,2.15,7.15,3.19,10.74h-6.38c1.03-3.52,2.16-7.12,3.19-10.74Z"/>
      <path class="cls-1" d="M58.73,7.44c-1.3-2.57-3.39-4.65-5.95-5.96-2.91-1.48-6.73-1.48-14.36-1.48H21.79C14.16,0,10.35,0,7.43,1.48,4.87,2.79,2.79,4.87,1.48,7.44c-1.48,2.91-1.48,6.73-1.48,14.35v16.64c0,7.63,0,11.44,1.48,14.35,1.31,2.57,3.39,4.65,5.95,5.96,2.92,1.48,6.73,1.48,14.36,1.48h16.63c7.63,0,11.45,0,14.36-1.48,2.56-1.31,4.65-3.39,5.95-5.96,1.49-2.91,1.49-6.72,1.49-14.35V21.79c0-7.62,0-11.44-1.49-14.35Zm-21.83,36.83h-5.26c-.18,.02-.36-.11-.4-.29l-2.06-6.13h-9.33l-1.9,6.05c-.05,.22-.26,.38-.49,.37h-4.72c-.27,0-.37-.15-.29-.46l8.08-23.86c.08-.25,.17-.54,.25-.85,.1-.56,.16-1.12,.16-1.68-.03-.17,.12-.31,.28-.29h6.42c.19,0,.3,.07,.33,.21l9.17,26.51c.08,.28,0,.42-.24,.42Zm8.52-.42c0,.28-.11,.42-.32,.42h-4.93c-.25,0-.37-.14-.37-.42V24.05c0-.25,.11-.37,.33-.37h4.97c.21,0,.32,.12,.32,.37v19.8Zm.16-24.33c-.15,.4-.37,.78-.67,1.09-.3,.31-.66,.55-1.06,.7-.4,.16-.83,.23-1.26,.21-.41,.02-.82-.05-1.2-.21-.39-.16-.73-.4-1.02-.7-.29-.32-.51-.69-.66-1.1-.14-.4-.21-.83-.19-1.26-.01-.43,.06-.86,.22-1.25,.15-.4,.39-.76,.69-1.05,.3-.3,.65-.53,1.03-.68,.39-.15,.8-.22,1.21-.21,.97,0,1.73,.29,2.28,.89,.28,.31,.5,.67,.64,1.06,.14,.4,.21,.82,.19,1.24,.02,.43-.05,.86-.2,1.27Z"/>
    </g>
  </g>
</svg>