<?xml version="1.0" encoding="UTF-8"?>
<svg id="Capa_2" data-name="Capa 2" xmlns="http://www.w3.org/2000/svg" viewBox="0 0 58.04 58.04">
  <defs>
    <style>
      .cls-1 {
        fill: #44a8b3;
      }
    </style>
  </defs>
  <g id="Capa_1-2" data-name="Capa 1">
    <path class="cls-1" d="M0,0V58.04H58.04V0H0ZM31.58,45.27c0,5.65-3.31,8.22-8.14,8.22-4.36,0-6.89-2.26-8.19-4.98l4.44-2.69c.86,1.52,1.64,2.81,3.5,2.81s2.93-.7,2.93-3.42V26.65h5.45v18.62Zm12.89,8.22c-5.06,0-8.34-2.42-9.93-5.57l4.43-2.58c1.17,1.91,2.69,3.31,5.38,3.31,2.26,0,3.7-1.12,3.7-2.68,0-1.88-1.48-2.54-3.97-3.63l-1.36-.58c-3.94-1.67-6.55-3.78-6.55-8.22,0-4.09,3.12-7.2,7.99-7.2,3.47,0,5.96,1.2,7.75,4.36l-4.25,2.73c-.94-1.67-1.95-2.34-3.5-2.34s-2.61,1.01-2.61,2.34c0,1.64,1.01,2.3,3.35,3.31l1.37,.58c4.63,1.99,7.24,4.02,7.24,8.58,0,4.9-3.85,7.59-9.04,7.59Z"/>
  </g>
</svg>