<?xml version="1.0" encoding="UTF-8"?>
<svg id="Capa_2" data-name="Capa 2" xmlns="http://www.w3.org/2000/svg" viewBox="0 0 59.88 59.88">
  <defs>
    <style>
      .cls-1 {
        fill: #44a8b3;
      }
    </style>
  </defs>
  <g id="Capa_1-2" data-name="Capa 1">
    <g id="_2069a460dcf28295e231f3111e037552" data-name="2069a460dcf28295e231f3111e037552">
      <path class="cls-1" d="M20.13,19.32c-1.45,0-2.47,.12-3.02,.25v9.68c.64,.16,1.49,.21,2.54,.21,3.91,0,6.28-1.91,6.28-5.26s-2.2-4.88-5.8-4.88Zm0,0c-1.45,0-2.47,.12-3.02,.25v9.68c.64,.16,1.49,.21,2.54,.21,3.91,0,6.28-1.91,6.28-5.26s-2.2-4.88-5.8-4.88ZM49.9,0H9.98C4.49,0,0,4.49,0,9.98V49.9c0,5.49,4.49,9.98,9.98,9.98H49.9c5.49,0,9.98-4.49,9.98-9.98V9.98c0-5.49-4.49-9.98-9.98-9.98ZM28.69,30.47c-2.08,2.08-5.35,3.06-9.04,3.06-.97,0-1.86-.05-2.54-.17v10.77h-5.17V15.92c1.86-.33,4.45-.59,7.97-.59,3.82,0,6.62,.8,8.44,2.33,1.7,1.4,2.8,3.65,2.8,6.33s-.85,4.96-2.46,6.48Zm10.86,14.09c-2.51,0-4.75-.6-6.28-1.45l1.02-3.77c1.19,.72,3.43,1.48,5.3,1.48,2.29,0,3.31-.93,3.31-2.29s-.85-2.12-3.39-3.01c-4.03-1.4-5.73-3.6-5.69-6.02,0-3.65,3.01-6.49,7.81-6.49,2.29,0,4.28,.59,5.47,1.23l-1.02,3.69c-.89-.51-2.55-1.19-4.37-1.19s-2.88,.89-2.88,2.16,.97,1.96,3.6,2.89c3.73,1.36,5.47,3.26,5.52,6.32,0,3.73-2.93,6.45-8.4,6.45ZM20.13,19.32c-1.45,0-2.47,.12-3.02,.25v9.68c.64,.16,1.49,.21,2.54,.21,3.91,0,6.28-1.91,6.28-5.26s-2.2-4.88-5.8-4.88Z"/>
    </g>
  </g>
</svg>