<?xml version="1.0" encoding="UTF-8"?>
<svg id="Capa_2" data-name="Capa 2" xmlns="http://www.w3.org/2000/svg" viewBox="0 0 66.87 57.96">
  <defs>
    <style>
      .cls-1 {
        fill-rule: evenodd;
      }

      .cls-1, .cls-2 {
        fill: #44a8b3;
      }
    </style>
  </defs>
  <g id="Capa_1-2" data-name="Capa 1">
    <g>
      <path class="cls-2" d="M39.41,28.92c0-3.2-2.67-5.79-5.97-5.79s-5.97,2.59-5.97,5.79,2.67,5.79,5.97,5.79,5.97-2.59,5.97-5.79Z"/>
      <path class="cls-1" d="M52.83,18.18c1.26-4.97,2.85-14.18-2.74-17.31-5.56-3.11-12.8,2.85-16.62,6.43C29.66,3.75,22.22-2.18,16.63,.95c-5.56,3.12-3.85,12.18-2.56,17.18C8.89,19.56,0,22.64,0,28.92s8.88,9.61,14.04,11.04c-1.29,5.03-2.92,13.96,2.64,17.07,5.6,3.13,13.02-2.66,16.88-6.28,3.85,3.6,11.01,9.43,16.58,6.31,5.58-3.13,4.13-12.22,2.84-17.25,5-1.43,13.9-4.7,13.9-10.89s-8.94-9.33-14.04-10.75Zm-.63,18.98c-.85-2.6-1.99-5.36-3.39-8.21,1.33-2.79,2.43-5.51,3.25-8.09,3.74,1.05,11.95,3.46,11.95,8.08s-7.88,7.09-11.82,8.23Zm-3.49,17.52c-4.15,2.33-10.32-3.25-13.16-5.9,1.88-2,3.77-4.32,5.61-6.9,3.23-.28,6.29-.73,9.06-1.35,.91,3.56,2.66,11.81-1.51,14.15Zm-30.6-.03c-4.15-2.32-2.25-10.29-1.3-13.99,2.74,.59,5.77,1.01,9.01,1.27,1.85,2.52,3.79,4.84,5.74,6.88-2.41,2.26-9.28,8.18-13.45,5.85ZM2.86,28.92c0-4.69,8.16-7.07,11.99-8.12,.84,2.64,1.93,5.4,3.26,8.19-1.34,2.83-2.46,5.63-3.3,8.31-3.65-1.01-11.95-3.68-11.95-8.37ZM18.06,3.35c4.17-2.34,10.63,3.36,13.4,5.92-1.94,2.02-3.86,4.33-5.7,6.84-3.15,.28-6.16,.74-8.92,1.34-1.04-4.03-2.95-11.76,1.22-14.1Zm25.13,15.77c2.13,.26,4.18,.61,6.1,1.03-.58,1.79-1.29,3.66-2.14,5.58-1.23-2.26-2.54-4.47-3.96-6.62Zm-9.73-7.87c1.32,1.38,2.64,2.93,3.94,4.61-2.63-.12-5.27-.12-7.9,0,1.3-1.66,2.63-3.2,3.97-4.6Zm-13.73,14.48c-.83-1.91-1.54-3.79-2.12-5.61,1.91-.41,3.94-.75,6.06-1.01-1.42,2.15-2.73,4.35-3.94,6.62Zm4,13.2c-2.19-.24-4.26-.56-6.16-.96,.59-1.85,1.32-3.77,2.17-5.72,1.22,2.29,2.56,4.52,4,6.68Zm9.81,7.86c-1.35-1.42-2.7-2.98-4.02-4.67,2.65,.1,5.3,.1,7.95-.01-1.3,1.72-2.62,3.29-3.93,4.68Zm13.64-14.64c.89,1.98,1.65,3.89,2.25,5.7-1.94,.43-4.03,.77-6.24,1.03,1.43-2.19,2.76-4.44,3.99-6.73Zm-7.62,7.07c-4.05,.28-8.13,.28-12.18,.02-2.3-3.26-4.35-6.69-6.12-10.25,1.76-3.55,3.8-6.98,6.09-10.23,4.05-.3,8.13-.3,12.19,0,2.27,3.26,4.3,6.67,6.11,10.19-1.78,3.55-3.83,6.98-6.08,10.27ZM48.66,3.27c4.17,2.33,2.31,10.61,1.4,14.21-2.77-.62-5.79-1.08-8.94-1.37-1.84-2.54-3.74-4.84-5.65-6.84,2.8-2.62,9.06-8.31,13.19-6Z"/>
    </g>
  </g>
</svg>