<?xml version="1.0" encoding="UTF-8"?>
<svg id="Capa_2" data-name="Capa 2" xmlns="http://www.w3.org/2000/svg" viewBox="0 0 90.58 54.35">
  <defs>
    <style>
      .cls-1 {
        fill: #44a8b3;
      }
    </style>
  </defs>
  <g id="Capa_1-2" data-name="Capa 1">
    <path class="cls-1" d="M22.65,18.12C25.66,6.04,33.21,0,45.29,0c18.12,0,20.38,13.59,29.44,15.85,6.04,1.51,11.32-.75,15.85-6.79-3.02,12.08-10.57,18.12-22.65,18.12-18.12,0-20.38-13.59-29.44-15.85-6.04-1.51-11.32,.75-15.85,6.79ZM0,45.29c3.02-12.08,10.57-18.12,22.65-18.12,18.12,0,20.38,13.59,29.44,15.85,6.04,1.51,11.32-.75,15.85-6.79-3.02,12.08-10.57,18.12-22.65,18.12-18.12,0-20.38-13.59-29.44-15.85-6.04-1.51-11.32,.75-15.85,6.79Z"/>
  </g>
</svg>