<?xml version="1.0" encoding="UTF-8"?>
<svg id="Capa_2" data-name="Capa 2" xmlns="http://www.w3.org/2000/svg" viewBox="0 0 55.65 62.99">
  <defs>
    <style>
      .cls-1 {
        fill: #2e8a8e;
      }

      .cls-2 {
        fill: #44a8b3;
      }
    </style>
  </defs>
  <g id="Capa_1-2" data-name="Capa 1">
    <g>
      <path class="cls-2" d="M27.82,62.99l25.46-14.7-9.71-5.64-9.97,5.77c-.39,.26-.79,0-.79-.52v-13.65c0-.39,.26-.79,.52-.92l11.81-6.82c.39-.26,.79,0,.79,.52v11.55l9.71,5.64V14.7L27.82,30.84V62.99Z"/>
      <path class="cls-2" d="M30.32,0V11.29l9.97,5.77c.39,.26,.39,.79,0,.92l-11.81,6.82c-.39,.26-.79,.13-1.05,0l-11.81-6.82c-.39-.13-.39-.79,0-.92l9.97-5.77V0L0,14.7,27.82,30.84,55.65,14.7,30.32,0Z"/>
      <path class="cls-1" d="M22.18,48.43l-9.97-5.77-9.71,5.64,25.46,14.7V30.84L0,14.7v29.4l9.71-5.64v-11.55c0-.39,.52-.66,.79-.52l11.81,6.82c.39,.26,.52,.52,.52,.92v13.65c.13,.52-.26,.92-.66,.66Z"/>
    </g>
  </g>
</svg>