<?xml version="1.0" encoding="UTF-8"?>
<svg id="Capa_2" data-name="Capa 2" xmlns="http://www.w3.org/2000/svg" viewBox="0 0 63.19 63.19">
  <defs>
    <style>
      .cls-1 {
        fill: #44a8b3;
      }
    </style>
  </defs>
  <g id="Capa_1-2" data-name="Capa 1">
    <path class="cls-1" d="M4.51,31.59c0-3.97,.81-7.67,2.35-11.01l12.91,35.38c-9.03-4.33-15.25-13.63-15.25-24.37h0Zm45.4-1.35c0,2.35-.9,4.97-2.08,8.75l-2.71,9.03-9.84-29.16c1.63-.09,3.16-.27,3.16-.27,1.44-.18,1.27-2.26-.18-2.17,0,0-4.42,.27-7.22,.27s-7.13-.27-7.13-.27c-1.44-.09-1.63,2.08-.18,2.17,0,0,1.35,.18,2.8,.27l4.24,11.55-5.96,17.78L14.98,18.86c1.63-.09,3.07-.27,3.07-.27,1.53-.18,1.35-2.26-.18-2.17,0,0-4.33,.27-7.22,.27h-1.72c4.88-7.31,13.18-12.19,22.66-12.19,7.04,0,13.45,2.71,18.32,7.13-.18-.09-.27-.09-.36-.09-2.71,0-4.6,2.35-4.6,4.88,0,2.17,1.35,4.06,2.71,6.32,.99,1.81,2.26,4.15,2.26,7.49h0Zm-26,27.35l8.13-23.65,8.39,22.84c0,.18,.09,.27,.18,.36-2.8,.99-5.87,1.53-9.03,1.53-2.62,0-5.24-.36-7.67-1.08h0ZM55.33,18.6c2.17,3.88,3.34,8.3,3.34,13,0,10.02-5.42,18.69-13.45,23.47l8.3-24.01c1.53-3.79,1.99-6.95,1.99-9.66,0-.99,0-1.89-.18-2.8h0ZM31.59,0c17.42,0,31.59,14.17,31.59,31.59s-14.17,31.59-31.59,31.59S0,49.02,0,31.59,14.17,0,31.59,0Zm0,61.74c16.61,0,30.15-13.54,30.15-30.15S48.2,1.44,31.59,1.44,1.44,14.98,1.44,31.59s13.54,30.15,30.15,30.15Z"/>
  </g>
</svg>